<?xml version="1.0" encoding="utf-8"?>
<!-- Generator: Adobe Illustrator 18.1.0, SVG Export Plug-In . SVG Version: 6.00 Build 0)  -->
<!DOCTYPE svg PUBLIC "-//W3C//DTD SVG 1.1//EN" "http://www.w3.org/Graphics/SVG/1.1/DTD/svg11.dtd">
<svg version="1.1" id="Arrow_1_" xmlns="http://www.w3.org/2000/svg" xmlns:xlink="http://www.w3.org/1999/xlink" x="0px" y="0px"
	 width="500px" height="500px" viewBox="0 0 500 500" enable-background="new 0 0 500 500" xml:space="preserve">
  <metadata>
    <?xpacket begin="﻿" id="W5M0MpCehiHzreSzNTczkc9d"?>
    <x:xmpmeta xmlns:x="adobe:ns:meta/" x:xmptk="Adobe XMP Core 5.6-c011 79.156380, 2014/06/19-23:40:37        ">
     <rdf:RDF xmlns:rdf="http://www.w3.org/1999/02/22-rdf-syntax-ns#">
      <rdf:Description rdf:about=""
        xmlns:xmpMM="http://ns.adobe.com/xap/1.0/mm/"
        xmlns:stEvt="http://ns.adobe.com/xap/1.0/sType/ResourceEvent#"
        xmlns:xmp="http://ns.adobe.com/xap/1.0/"
        xmlns:xmpRights="http://ns.adobe.com/xap/1.0/rights/"
        xmlns:dc="http://purl.org/dc/elements/1.1/"
       xmpMM:DocumentID="xmp.did:671d66de02255390822d704c0e38d732"
       xmpMM:OriginalDocumentID="xmp.did:671d66de02255390822d704c0e38d732"
       xmpMM:InstanceID="xmp.iid:671d66de02255390822d704c0e38d732"
       xmp:ModifyDate="2015-04-14T16:37:31+02:00"
       xmp:MetadataDate="2015-04-14T16:37:31+02:00"
       xmpRights:Marked="True"
       xmpRights:WebStatement="http://www.adobe.com/legal/general-terms.html">
       <xmpMM:History>
        <rdf:Seq>
         <rdf:li
          stEvt:action="saved"
          stEvt:instanceID="xmp.iid:671d66de02255390822d704c0e38d732"
          stEvt:when="2015-04-14T16:37:31+02:00"/>
        </rdf:Seq>
       </xmpMM:History>
       <xmpRights:UsageTerms>
        <rdf:Alt>
         <rdf:li xml:lang="x-default">This work is licensed under the Adobe General Terms of Use http://www.adobe.com/legal/general-terms.html.</rdf:li>
        </rdf:Alt>
       </xmpRights:UsageTerms>
       <dc:publisher>
        <rdf:Bag>
         <rdf:li>Adobe Systems Incorporated</rdf:li>
        </rdf:Bag>
       </dc:publisher>
      </rdf:Description>
     </rdf:RDF>
    </x:xmpmeta>
    <?xpacket end="r"?>
  </metadata>
<g>
	<g>
		<g>
			<g>
				<path fill="#36A9E1" d="M482.9,343.1l-49.2-144.9c-0.5-1.4-1.2-2.6-2.3-3.7c-0.8-0.8-3.6-3.6-8-6.9V36.1
					c0-19.9-16.2-36.1-36-36.1H46.2C26.3,0,10.2,16.2,10.2,36.1v341.2c0,9.6,3.8,18.6,10.6,25.4c6.8,6.8,15.8,10.5,25.3,10.5
					c0.1,0,0.2,0,0.2,0H188c7.3,3.2,40.4,23.8,69.5,43.5c19.7,20.3,47.1,37.6,47.7,38c5,3.6,11.6,5.4,20.2,5.4
					c18.3,0,40.9-8.3,41.3-8.5l43.2-13.4c45.8-14.3,64.8-41.4,65.3-42.2C502.3,399.8,483.6,345.3,482.9,343.1z M46.1,394.3
					C46.1,394.3,46.1,394.3,46.1,394.3c-4.6,0-8.8-1.8-12.1-5c-3.3-3.3-5.1-7.6-5.1-12.1V36.1c0-9.6,7.8-17.3,17.3-17.3h341.2
					c9.5,0,17.2,7.7,17.2,17.3v141.5c-3.6-1.2-7.3-1.9-11.1-1.9c-3.3,0-6.4,0.6-9.4,1.5c-9,3.1-16.3,8.9-21.7,15.2
					c-5.2-6.3-14.3-13.3-26.7-13.3c-3.8,0-7.7,0.7-11.6,2c-11.1,3.9-19.3,9.4-25.1,14.4c-11.1-13.1-25.1-17.9-38.7-13.3
					c-8.3,2.8-14.5,6.6-19.1,10.7l-18.8-55.2c-0.5-1-11.4-24.4-35.8-24.4c-4.4,0-8.9,0.8-13.4,2.3c-22.2,7.5-24.8,32.2-23.1,44.2
					c0.1,0.6,0.2,1.1,0.4,1.7L210.5,338l-33.1-14.7c-0.8-0.3-17.6-6.9-34.4-6.9c-20.5,0-29.6,9.7-33.5,17.8
					c-11.7,23.7,3.5,42.5,17,49.7l21.3,10.5H46.1z M459.9,424.9c-0.1,0.2-16.4,23-55.6,35.2l-43.7,13.6c-0.2,0.1-20.4,7.5-35.3,7.5
					c-6,0-8.5-1.3-9.7-2.2c-0.3-0.2-27.1-17.2-45.4-36.3c-0.5-0.5-0.9-0.8-1.5-1.2c-54.7-36.9-70.3-45.3-75.9-47.2L135,367
					c-2.8-1.4-16-9.7-8.6-24.5c0.9-1.9,3.7-7.4,16.7-7.4c6.5,0,13.2,1.4,18.4,2.7c5.2,1.4,8.6,2.8,8.6,2.8l52.4,23.2
					c3.4,1.5,7.3,0.8,10.1-1.7c2.7-2.5,3.8-6.4,2.5-10l-66.5-195.8c-0.3-3.6-1-19.2,10.6-23.1c2.6-0.8,5.1-1.3,7.4-1.3
					c11.3,0,17.4,10.9,18.5,13.1l24.6,72.7l29.9,87.8c1.7,5,7,7.6,11.9,5.9c4.9-1.7,7.5-7,5.8-11.9l-28.9-85.4
					c1-2.9,4.8-9.8,17.8-14.3c10.5-3.6,19.5,8.5,23.1,14.4l25.5,71.6c1.7,4.8,7,7.4,11.9,5.7c4.9-1.7,7.5-7,5.8-11.9L310,212.8
					c0,0-0.2-0.5-0.6-1.3c3.8-3.8,10.6-9.1,20.8-12.6c2-0.7,3.9-1,5.6-1c7.7,0,12.3,6.6,13.3,8.2l8.7,20.2l14,41.1v0.1
					c1.7,4.9,7,7.6,11.9,5.8c4.9-1.6,7.5-6.9,5.8-11.9l-17.1-50.5c2.2-4.1,8.4-12.6,17.7-15.8c7.9-2.6,21,6.6,26.3,11.3l48.6,142.8
					C465.2,349.6,481.3,396.4,459.9,424.9z"/>
			</g>
		</g>
	</g>
	<g>
		<g>
			<g>
				<path fill="#36A9E1" d="M122.7,216c-2.5,0-5.1-1-7-3.1c-15-16.6-23.3-38-23.3-60.4c0-49.5,40.3-89.8,89.8-89.8
					c37.6,0,71.6,23.7,84.4,59.1c3.6,9.8,5.4,20.2,5.4,30.8c0,5.2-4.2,9.4-9.4,9.4c-5.2,0-9.4-4.2-9.4-9.4c0-8.4-1.4-16.6-4.3-24.3
					c-10.2-28-37-46.7-66.8-46.7c-39.2,0-71.1,31.9-71.1,71.1c0,17.7,6.5,34.7,18.5,47.8c3.5,3.8,3.2,9.8-0.6,13.3
					C127.2,215.2,124.9,216,122.7,216z"/>
			</g>
		</g>
	</g>
	<g>
		<g>
			<g>
				<path fill="#36A9E1" d="M183,403.9"/>
			</g>
		</g>
	</g>
</g>
</svg>
